HIERARCHY
ROOT Hips
{
	OFFSET 0.00000 0.00000 0.00000
	CHANNELS 6 Xposition Yposition Zposition Zrotation Yrotation Xrotation 
	JOINT LHipJoint
	{
		OFFSET 0 0 0
		CHANNELS 3 Zrotation Yrotation Xrotation
		JOINT LeftUpLeg
		{
			OFFSET 1.80322 -1.53100 0.99595
			CHANNELS 3 Zrotation Yrotation Xrotation
			JOINT LeftLeg
			{
				OFFSET 2.25177 -6.18669 0.00000
				CHANNELS 3 Zrotation Yrotation Xrotation
				JOINT LeftFoot
				{
					OFFSET 2.26601 -6.22582 0.00000
					CHANNELS 3 Zrotation Yrotation Xrotation
					JOINT LeftToeBase
					{
						OFFSET 0.23701 -0.65119 2.15848
						CHANNELS 3 Zrotation Yrotation Xrotation
						End Site
						{
							OFFSET 0.00000 -0.00000 1.12949
						}
					}
				}
			}
		}
	}
	JOINT RHipJoint
	{
		OFFSET 0 0 0
		CHANNELS 3 Zrotation Yrotation Xrotation
		JOINT RightUpLeg
		{
			OFFSET -1.93977 -1.53100 0.99595
			CHANNELS 3 Zrotation Yrotation Xrotation
			JOINT RightLeg
			{
				OFFSET -2.28036 -6.26523 0.00000
				CHANNELS 3 Zrotation Yrotation Xrotation
				JOINT RightFoot
				{
					OFFSET -2.25490 -6.19528 0.00000
					CHANNELS 3 Zrotation Yrotation Xrotation
					JOINT RightToeBase
					{
						OFFSET -0.28375 -0.77960 2.23137
						CHANNELS 3 Zrotation Yrotation Xrotation
						End Site
						{
							OFFSET -0.00000 -0.00000 1.17899
						}
					}
				}
			}
		}
	}
	JOINT LowerBack
	{
		OFFSET 0 0 0
		CHANNELS 3 Zrotation Yrotation Xrotation
		JOINT Spine
		{
			OFFSET -0.00088 2.12090 -0.02806
			CHANNELS 3 Zrotation Yrotation Xrotation
			JOINT Spine1
			{
				OFFSET -0.00286 2.09666 0.12974
				CHANNELS 3 Zrotation Yrotation Xrotation
				JOINT Neck
				{
					OFFSET 0 0 0
					CHANNELS 3 Zrotation Yrotation Xrotation
					JOINT Neck1
					{
						OFFSET 0.07328 1.83526 0.07290
						CHANNELS 3 Zrotation Yrotation Xrotation
						JOINT Head
						{
							OFFSET -0.06683 1.74974 -0.49542
							CHANNELS 3 Zrotation Yrotation Xrotation
							End Site
							{
								OFFSET -0.03398 1.85163 -0.17573
							}
						}
					}
				}
				JOINT LeftShoulder
				{
					OFFSET 0 0 0
					CHANNELS 3 Zrotation Yrotation Xrotation
					JOINT LeftArm
					{
						OFFSET 3.02113 1.18018 0.40602
						CHANNELS 3 Zrotation Yrotation Xrotation
						JOINT LeftForeArm
						{
							OFFSET 4.58538 -0.00000 -0.00000
							CHANNELS 3 Zrotation Yrotation Xrotation
							JOINT LeftHand
							{
								OFFSET 2.68935 -0.00000 -0.00000
								CHANNELS 3 Zrotation Yrotation Xrotation
								JOINT LeftFingerBase
								{
									OFFSET 0 0 0
									CHANNELS 3 Zrotation Yrotation Xrotation
									JOINT LeftHandIndex1
									{
										OFFSET 0.58506 -0.00000 -0.00000
										CHANNELS 3 Zrotation Yrotation Xrotation
										End Site
										{
											OFFSET 0.47169 -0.00000 -0.00000
										}
									}
								}
								JOINT LThumb
								{
									OFFSET 0 0 0
									CHANNELS 3 Zrotation Yrotation Xrotation
									End Site
									{
										OFFSET 0.47889 -0.00000 0.47889
									}
								}
							}
						}
					}
				}
				JOINT RightShoulder
				{
					OFFSET 0 0 0
					CHANNELS 3 Zrotation Yrotation Xrotation
					JOINT RightArm
					{
						OFFSET -2.95074 1.18843 0.31430
						CHANNELS 3 Zrotation Yrotation Xrotation
						JOINT RightForeArm
						{
							OFFSET -4.47450 -0.00000 -0.00000
							CHANNELS 3 Zrotation Yrotation Xrotation
							JOINT RightHand
							{
								OFFSET -2.93896 -0.00000 -0.00000
								CHANNELS 3 Zrotation Yrotation Xrotation
								JOINT RightFingerBase
								{
									OFFSET 0 0 0
									CHANNELS 3 Zrotation Yrotation Xrotation
									JOINT RightHandIndex1
									{
										OFFSET -0.40509 -0.00000 -0.00000
										CHANNELS 3 Zrotation Yrotation Xrotation
										End Site
										{
											OFFSET -0.32660 -0.00000 -0.00000
										}
									}
								}
								JOINT RThumb
								{
									OFFSET 0 0 0
									CHANNELS 3 Zrotation Yrotation Xrotation
									End Site
									{
										OFFSET -0.33158 -0.00000 0.33158
									}
								}
							}
						}
					}
				}
			}
		}
	}
}
MOTION
Frames: 11
Frame Time: .0083333
0.1100 14.7828 -2.0364 -5.8007 -33.6055 21.3043 0.0000 0.0000 0.0000 -0.3042 -2.6144 -57.3311 7.5024 15.7408 50.7498 -0.1531 9.4064 -10.2247 0.2286 3.0774 8.4943 0.0000 0.0000 0.0000 20.4897 12.5816 -3.8153 -2.0669 -9.0041 25.8080 -2.0724 -20.9432 -41.0429 -0.0260 1.0412 -2.8623 2.8486 0.6543 -2.6922 -1.2190 0.7788 -6.8265 -2.8757 0.1738 -5.5142 15.1328 10.0592 -9.1533 -12.2069 14.7391 28.0625 -5.0596 6.7862 12.9916 -0.0000 -0.0000 0.0000 -54.4943 -31.2158 25.7040 157.4721 -33.5685 -113.1245 -0.0000 -0.0000 2.2181 32.8214 4.9140 3.1624 -7.1250 0.0000 -0.0000 5.1498 35.7818 -1.1706 -0.0000 -0.0000 0.0000 72.5704 39.1435 49.9507 -147.8462 42.6695 -107.1550 0.0000 -0.0000 -5.4063 -40.2710 9.3385 -7.8275 7.1250 -0.0000 -0.0000 -9.3378 -17.9112 -6.0952
0.0966 14.7750 -2.0819 -5.7704 -33.4754 21.1544 0.0000 0.0000 0.0000 -0.2884 -2.5810 -56.9512 7.5497 15.7778 50.9239 -0.1320 9.3493 -10.6429 0.1557 2.5426 7.0078 0.0000 0.0000 0.0000 20.7134 12.6253 -3.7554 -2.0779 -9.0265 25.8783 -2.1274 -21.0496 -41.3867 -0.0178 0.8617 -2.3682 3.0926 0.6057 -2.7921 -1.1315 0.7157 -6.8389 -2.9191 0.1325 -5.4749 15.2079 10.0975 -8.9181 -12.2708 14.8495 28.2376 -5.0936 6.8435 13.0487 0.0000 -0.0000 0.0000 -54.5816 -31.0688 25.8202 157.5175 -33.5181 -113.1496 -0.0000 -0.0000 2.2644 32.8434 4.8500 3.1240 -7.1250 0.0000 -0.0000 5.1663 35.7073 -1.1837 0.0000 -0.0000 0.0000 72.6211 39.0490 50.1755 -147.7415 42.7523 -107.0841 0.0000 -0.0000 -5.4694 -40.0705 9.3325 -7.7678 7.1250 -0.0000 -0.0000 -9.2016 -17.9506 -5.9958
0.0849 14.7683 -2.1223 -5.7526 -33.3909 20.9997 0.0000 0.0000 0.0000 -0.2634 -2.5999 -56.4680 7.5651 15.7899 50.9806 -0.1114 9.3574 -11.1383 0.0973 2.0117 5.5380 0.0000 0.0000 0.0000 20.9055 12.6199 -3.6843 -2.0830 -9.0368 25.9105 -2.1623 -21.1383 -41.6218 -0.0124 0.7179 -1.9730 3.3386 0.5711 -2.8979 -1.0415 0.6708 -6.8454 -2.9614 0.1005 -5.4251 15.2939 10.1411 -8.6779 -12.3486 14.9704 28.4056 -5.1333 6.9056 13.1067 -0.0000 -0.0000 0.0000 -54.6792 -30.9076 25.9364 157.5671 -33.4629 -113.1770 -0.0000 -0.0000 2.3106 32.8751 4.7868 3.0872 -7.1250 0.0000 -0.0000 5.1908 35.6341 -1.1987 -0.0000 -0.0000 0.0000 72.6708 38.9665 50.4112 -147.6143 42.8525 -106.9976 0.0000 -0.0000 -5.5060 -39.9243 9.4506 -7.8239 7.1250 -0.0000 -0.0000 -9.0824 -17.8240 -5.9417
0.0747 14.7636 -2.1574 -5.7275 -33.3554 20.8299 0.0000 0.0000 0.0000 -0.2135 -2.7144 -55.8653 7.5202 15.7548 50.8156 -0.0921 9.4089 -11.6470 0.0604 1.5852 4.3605 0.0000 0.0000 0.0000 21.0443 12.5487 -3.6097 -2.0830 -9.0370 25.9110 -2.1800 -21.1859 -41.7429 -0.0090 0.6130 -1.6845 3.5697 0.5505 -3.0064 -0.9555 0.6436 -6.8465 -3.0000 0.0784 -5.3669 15.3882 10.1889 -8.4361 -12.4380 15.0997 28.5664 -5.1776 6.9713 13.1655 0.0000 -0.0000 0.0000 -54.7945 -30.7349 26.0482 157.6123 -33.4124 -113.2019 -0.0000 -0.0000 2.3541 32.9080 4.6772 3.0206 -7.1250 0.0000 -0.0000 5.2149 35.5061 -1.2206 0.0000 -0.0000 0.0000 72.7227 38.8890 50.6649 -147.4754 42.9614 -106.9031 0.0000 -0.0000 -5.4891 -39.8402 9.5620 -7.8909 7.1250 -0.0000 -0.0000 -9.0068 -17.6964 -5.9166
0.0657 14.7613 -2.1877 -5.6887 -33.3667 20.6438 0.0000 0.0000 0.0000 -0.1300 -2.9424 -55.1527 7.4006 15.6601 50.3735 -0.0763 9.5119 -12.1398 0.0458 1.3816 3.7995 0.0000 0.0000 0.0000 21.1246 12.4126 -3.5434 -2.0807 -9.0322 25.8961 -2.1853 -21.1783 -41.7597 -0.0071 0.5443 -1.4958 3.7763 0.5450 -3.1109 -0.8739 0.6358 -6.8410 -3.0296 0.0675 -5.3028 15.4798 10.2394 -8.2065 -12.5298 15.2332 28.7225 -5.2212 7.0381 13.2263 0.0000 -0.0000 0.0000 -54.9427 -30.5442 26.1716 157.6568 -33.3628 -113.2264 -0.0000 -0.0000 2.4138 32.9555 4.5633 2.9527 -7.1250 0.0000 -0.0000 5.2507 35.3736 -1.2460 0.0000 -0.0000 0.0000 72.7706 38.8137 50.9273 -147.3276 43.0767 -106.8022 0.0000 -0.0000 -5.4094 -39.8486 9.6924 -7.9985 7.1250 -0.0000 -0.0000 -8.9916 -17.5303 -5.9396
0.0579 14.7608 -2.2136 -5.6339 -33.4176 20.4428 0.0000 0.0000 0.0000 -0.0189 -3.2743 -54.3592 7.2117 15.5076 49.6705 -0.0695 9.7208 -12.6027 0.0517 1.4666 4.0337 0.0000 0.0000 0.0000 21.1475 12.2155 -3.4965 -2.0793 -9.0294 25.8873 -2.1860 -21.1006 -41.6930 -0.0062 0.5083 -1.3966 3.9589 0.5525 -3.2113 -0.7980 0.6447 -6.8288 -3.0520 0.0664 -5.2325 15.5673 10.2927 -7.9953 -12.6238 15.3712 28.8803 -5.2636 7.1056 13.2932 0.0000 -0.0000 0.0000 -55.1167 -30.3379 26.3101 157.7033 -33.3107 -113.2520 -0.0000 -0.0000 2.4940 33.0185 4.4347 2.8767 -7.1250 0.0000 -0.0000 5.2988 35.2242 -1.2769 0.0000 -0.0000 0.0000 72.8127 38.7310 51.1961 -147.1802 43.1911 -106.7015 0.0000 -0.0000 -5.2668 -39.9453 9.8107 -8.1212 7.1250 -0.0000 -0.0000 -9.0384 -17.3651 -6.0044
0.0512 14.7609 -2.2361 -5.5639 -33.4996 20.2298 0.0000 0.0000 0.0000 0.0968 -3.6688 -53.5301 6.9786 15.3139 48.7935 -0.0759 10.0715 -13.0340 0.0783 1.8048 4.9664 0.0000 0.0000 0.0000 21.1178 11.9617 -3.4791 -2.0815 -9.0339 25.9014 -2.1876 -20.9454 -41.5617 -0.0060 0.5005 -1.3754 4.1162 0.5736 -3.3009 -0.7272 0.6716 -6.8157 -3.0657 0.0755 -5.1659 15.6465 10.3446 -7.8039 -12.7112 15.5061 29.0481 -5.3023 7.1707 13.3671 0.0000 0.0000 0.0000 -55.3276 -30.1149 26.4808 157.7498 -33.2586 -113.2775 -0.0000 -0.0000 2.5926 33.0916 4.2853 2.7879 -7.1250 0.0000 -0.0000 5.3543 35.0505 -1.3131 0.0000 0.0000 0.0000 72.8403 38.6234 51.4570 -147.0445 43.2958 -106.6085 0.0000 -0.0000 -5.0746 -40.1085 9.8936 -8.2352 7.1250 -0.0000 -0.0000 -9.1359 -17.2333 -6.0976
0.0457 14.7609 -2.2561 -5.4924 -33.5979 20.0142 0.0000 0.0000 0.0000 0.1969 -4.0644 -52.7198 6.7367 15.1061 47.8715 -0.0941 10.5440 -13.4500 0.1244 2.2733 6.2616 0.0000 0.0000 0.0000 21.0573 11.6649 -3.4892 -2.0878 -9.0467 25.9415 -2.1933 -20.7227 -41.3891 -0.0063 0.5135 -1.4110 4.2629 0.6040 -3.3841 -0.6576 0.7108 -6.8009 -3.0749 0.0914 -5.1002 15.7190 10.3962 -7.6297 -12.7926 15.6397 29.2267 -5.3374 7.2346 13.4487 0.0000 0.0000 0.0000 -55.5569 -29.8810 26.6692 157.7999 -33.2025 -113.3049 -0.0000 -0.0000 2.6898 33.1740 4.1902 2.7347 -7.1250 0.0000 -0.0000 5.4192 34.9411 -1.3435 0.0000 0.0000 0.0000 72.8565 38.4929 51.7071 -146.9340 43.3807 -106.5326 0.0000 -0.0000 -4.8740 -40.2968 9.9533 -8.3383 7.1250 -0.0000 -0.0000 -9.2540 -17.1262 -6.2005
0.0409 14.7612 -2.2742 -5.4286 -33.6998 19.8071 0.0000 0.0000 0.0000 0.2645 -4.4078 -51.9813 6.5184 14.9125 47.0282 -0.1186 11.0604 -13.8485 0.1786 2.7219 7.5054 0.0000 0.0000 0.0000 20.9840 11.3409 -3.5220 -2.0963 -9.0638 25.9950 -2.2003 -20.4558 -41.1846 -0.0070 0.5409 -1.4863 4.4059 0.6396 -3.4676 -0.5865 0.7564 -6.7855 -3.0803 0.1108 -5.0329 15.7890 10.4475 -7.4700 -12.8704 15.7721 29.4133 -5.3708 7.2973 13.5367 0.0000 -0.0000 0.0000 -55.7940 -29.6444 26.8645 157.8484 -33.1479 -113.3315 -0.0000 -0.0000 2.7705 33.2610 4.1351 2.7079 -7.1250 0.0000 -0.0000 5.4892 34.8796 -1.3693 0.0000 -0.0000 0.0000 72.8629 38.3413 51.9454 -146.8506 43.4446 -106.4753 0.0000 -0.0000 -4.6897 -40.4986 10.0220 -8.4537 7.1250 -0.0000 -0.0000 -9.3794 -17.0048 -6.3121
0.0366 14.7625 -2.2910 -5.3791 -33.7942 19.6134 0.0000 0.0000 0.0000 0.2946 -4.6674 -51.3441 6.3426 14.7523 46.3417 -0.1438 11.5412 -14.2038 0.2220 3.0329 8.3705 0.0000 0.0000 0.0000 20.9152 11.0021 -3.5640 -2.1039 -9.0792 26.0433 -2.2016 -20.1830 -40.9505 -0.0082 0.5853 -1.6083 4.5460 0.6783 -3.5522 -0.5109 0.8060 -6.7712 -3.0794 0.1326 -4.9660 15.8592 10.4957 -7.3225 -12.9444 15.8986 29.6067 -5.4037 7.3574 13.6297 0.0000 0.0000 0.0000 -56.0309 -29.4144 27.0654 157.8940 -33.0966 -113.3564 -0.0000 -0.0000 2.8090 33.3365 4.0881 2.6849 -7.1250 0.0000 -0.0000 5.5501 34.8270 -1.3917 0.0000 0.0000 0.0000 72.8557 38.1691 52.1646 -146.8050 43.4794 -106.4440 0.0000 -0.0000 -4.5583 -40.6481 10.0321 -8.5061 7.1250 -0.0000 -0.0000 -9.4790 -16.9664 -6.3891
0.0324 14.7658 -2.3072 -5.3440 -33.8697 19.4354 0.0000 0.0000 0.0000 0.3117 -4.8644 -50.8176 6.2120 14.6307 45.8266 -0.1660 11.9329 -14.4806 0.2470 3.1982 8.8310 0.0000 0.0000 0.0000 20.8645 10.6735 -3.6013 -2.1087 -9.0889 26.0738 -2.1962 -19.9359 -40.7091 -0.0097 0.6347 -1.7443 4.6779 0.7165 -3.6436 -0.4276 0.8543 -6.7544 -3.0656 0.1546 -4.8928 15.9232 10.5387 -7.1874 -13.0130 16.0155 29.7961 -5.4346 7.4129 13.7213 -0.0000 0.0000 0.0000 -56.2666 -29.2039 27.2658 157.9339 -33.0517 -113.3781 -0.0000 -0.0000 2.8027 33.4012 4.0616 2.6741 -7.1250 0.0000 -0.0000 5.6026 34.7981 -1.4090 -0.0000 0.0000 0.0000 72.8294 37.9899 52.3508 -146.7851 43.4946 -106.4302 0.0000 -0.0000 -4.5021 -40.7510 10.1101 -8.6014 7.1250 -0.0000 -0.0000 -9.5354 -16.8491 -6.4529
